<svg width="168" height="48" viewBox="0 0 168 48" fill="none" xmlns="http://www.w3.org/2000/svg">
<path d="M72.7956 32.5359C72.9236 32.8132 72.9876 33.0905 72.9876 33.3679C72.9876 33.8585 72.785 34.2745 72.3796 34.6159C71.9956 34.9572 71.5476 35.1279 71.0356 35.1279C70.6943 35.1279 70.3743 35.0425 70.0756 34.8719C69.777 34.6799 69.5423 34.3919 69.3716 34.0079L67.4516 29.7199H56.1876L54.2676 34.0079C54.097 34.3919 53.8623 34.6799 53.5636 34.8719C53.265 35.0425 52.9343 35.1279 52.5716 35.1279C52.081 35.1279 51.633 34.9572 51.2276 34.6159C50.8223 34.2745 50.6196 33.8585 50.6196 33.3679C50.6196 33.0905 50.6836 32.8132 50.8116 32.5359L59.6436 13.5599C59.8356 13.1332 60.1236 12.8132 60.5076 12.5999C60.913 12.3652 61.3396 12.2479 61.7876 12.2479C62.2356 12.2479 62.6516 12.3652 63.0356 12.5999C63.441 12.8132 63.7396 13.1332 63.9316 13.5599L72.7956 32.5359ZM66.0436 26.5199L61.8196 17.0159L57.5956 26.5199H66.0436Z" fill="#062743"/>
<path d="M97.1296 12.2799C97.727 12.2799 98.207 12.4719 98.5696 12.8559C98.9323 13.2185 99.1136 13.7092 99.1136 14.3279V33.2719C99.1136 33.8692 98.943 34.3385 98.6016 34.6799C98.2603 35.0212 97.8123 35.1919 97.2576 35.1919C96.703 35.1919 96.2656 35.0212 95.9456 34.6799C95.6256 34.3385 95.4656 33.8692 95.4656 33.2719V20.0879L90.0256 30.3919C89.7696 30.8612 89.4923 31.2132 89.1936 31.4479C88.895 31.6612 88.543 31.7679 88.1376 31.7679C87.7323 31.7679 87.3803 31.6612 87.0816 31.4479C86.783 31.2345 86.5056 30.8825 86.2496 30.3919L80.7776 20.2479V33.2719C80.7776 33.8479 80.607 34.3172 80.2656 34.6799C79.9456 35.0212 79.5083 35.1919 78.9536 35.1919C78.399 35.1919 77.9616 35.0212 77.6416 34.6799C77.3216 34.3385 77.1616 33.8692 77.1616 33.2719V14.3279C77.1616 13.7092 77.3323 13.2185 77.6736 12.8559C78.0363 12.4719 78.5163 12.2799 79.1136 12.2799C79.9456 12.2799 80.5963 12.7385 81.0656 13.6559L88.1696 27.1919L95.2416 13.6559C95.711 12.7385 96.3403 12.2799 97.1296 12.2799Z" fill="#062743"/>
<path d="M106.988 34.9999C106.369 34.9999 105.879 34.8292 105.516 34.4879C105.175 34.1465 105.004 33.6665 105.004 33.0479V14.3919C105.004 13.7732 105.175 13.2932 105.516 12.9519C105.879 12.6105 106.369 12.4399 106.988 12.4399H118.54C119.159 12.4399 119.639 12.5785 119.98 12.8559C120.321 13.1332 120.492 13.5279 120.492 14.0399C120.492 14.5732 120.321 14.9892 119.98 15.2879C119.639 15.5652 119.159 15.7039 118.54 15.7039H109.036V21.9119H117.9C118.519 21.9119 118.999 22.0505 119.34 22.3279C119.681 22.6052 119.852 23.0105 119.852 23.5439C119.852 24.0559 119.681 24.4505 119.34 24.7279C118.999 25.0052 118.519 25.1439 117.9 25.1439H109.036V31.7359H118.54C119.159 31.7359 119.639 31.8852 119.98 32.1839C120.321 32.4612 120.492 32.8665 120.492 33.3999C120.492 33.9119 120.321 34.3065 119.98 34.5839C119.639 34.8612 119.159 34.9999 118.54 34.9999H106.988Z" fill="#062743"/>
<path d="M126.8 34.9999C126.181 34.9999 125.701 34.8292 125.36 34.4879C125.018 34.1465 124.848 33.6772 124.848 33.0799V14.3279C124.848 13.7092 125.029 13.2185 125.392 12.8559C125.776 12.4719 126.277 12.2799 126.896 12.2799C127.536 12.2799 128.037 12.4719 128.4 12.8559C128.784 13.2185 128.976 13.7092 128.976 14.3279V31.6079H137.968C139.248 31.6079 139.888 32.1732 139.888 33.3039C139.888 34.4345 139.248 34.9999 137.968 34.9999H126.8Z" fill="#062743"/>
<path d="M152.427 35.2879C150.23 35.2879 148.32 34.8185 146.699 33.8799C145.099 32.9412 143.862 31.5972 142.987 29.8479C142.112 28.0985 141.675 26.0505 141.675 23.7039C141.675 21.3572 142.102 19.3199 142.955 17.5919C143.83 15.8425 145.078 14.4985 146.699 13.5599C148.32 12.6212 150.23 12.1519 152.427 12.1519C154.624 12.1519 156.523 12.6212 158.123 13.5599C159.744 14.4985 160.982 15.8425 161.835 17.5919C162.71 19.3199 163.147 21.3572 163.147 23.7039C163.147 26.0505 162.71 28.0985 161.835 29.8479C160.96 31.5972 159.712 32.9412 158.091 33.8799C156.491 34.8185 154.603 35.2879 152.427 35.2879ZM152.427 31.9919C154.496 31.9919 156.107 31.2772 157.259 29.8479C158.432 28.4185 159.019 26.3705 159.019 23.7039C159.019 21.0372 158.432 18.9999 157.259 17.5919C156.107 16.1625 154.496 15.4479 152.427 15.4479C150.336 15.4479 148.704 16.1625 147.531 17.5919C146.379 18.9999 145.803 21.0372 145.803 23.7039C145.803 26.3705 146.379 28.4185 147.531 29.8479C148.704 31.2772 150.336 31.9919 152.427 31.9919Z" fill="#062743"/>
<path d="M33.8382 3.02895C36.6824 1.78893 39.9957 2.41628 42.1897 4.61024C44.3836 6.8042 45.011 10.1175 43.771 12.9617L31.4275 41.2732C28.33 48.3777 17.7324 46.2322 17.6423 38.4822L17.5474 30.3154C17.5441 30.0345 17.4311 29.766 17.2325 29.5674C17.0339 29.3688 16.7654 29.2558 16.4845 29.2525L8.3177 29.1576C0.567766 29.0676 -1.57783 18.4699 5.52675 15.3724L33.8382 3.02895Z" fill="url(#paint0_linear)"/>
<g style="mix-blend-mode:soft-light" opacity="0.6">
<path d="M33.8382 3.02895C36.6824 1.78893 39.9957 2.41628 42.1897 4.61024C44.3836 6.8042 45.011 10.1175 43.771 12.9617L31.4275 41.2732C28.33 48.3777 17.7324 46.2322 17.6423 38.4822L17.5474 30.3154C17.5441 30.0345 17.4311 29.766 17.2325 29.5674C17.0339 29.3688 16.7654 29.2558 16.4845 29.2525L8.3177 29.1576C0.567766 29.0676 -1.57783 18.4699 5.52675 15.3724L33.8382 3.02895Z" fill="url(#paint1_linear)"/>
</g>
<g style="mix-blend-mode:soft-light" opacity="0.9">
<path fill-rule="evenodd" clip-rule="evenodd" d="M38.0826 26.0088L31.4274 41.2733C28.3299 48.3779 17.7323 46.2323 17.6422 38.4824L17.5474 30.3155C17.5441 30.0346 17.4311 29.7662 17.2324 29.5676C17.0338 29.3689 16.7654 29.2559 16.4845 29.2527L8.31764 29.1578C0.567705 29.0677 -1.57789 18.4701 5.52669 15.3726L21.9081 8.23047C29.3517 10.7721 35.4665 16.782 37.792 24.9003C37.8978 25.2694 37.9946 25.639 38.0826 26.0088Z" fill="url(#paint2_linear)"/>
</g>
<g style="mix-blend-mode:soft-light" opacity="0.8">
<path fill-rule="evenodd" clip-rule="evenodd" d="M38.12 25.9229L31.4275 41.2732C28.33 48.3777 17.7324 46.2322 17.6423 38.4822L17.5474 30.3154C17.5441 30.0345 17.4311 29.7661 17.2325 29.5674C17.0339 29.3688 16.7654 29.2558 16.4845 29.2525L8.3177 29.1576C0.567766 29.0676 -1.57783 18.47 5.52675 15.3724L13.6868 11.8148C17.7511 10.9902 21.8694 11.2531 25.7299 12.7882C31.5095 15.0864 35.7512 19.8543 38.12 25.9229Z" fill="url(#paint3_linear)"/>
</g>
<defs>
<linearGradient id="paint0_linear" x1="23.0211" y1="46.0846" x2="57.8029" y2="27.546" gradientUnits="userSpaceOnUse">
<stop stop-color="#B950F0"/>
<stop offset="1" stop-color="#20B0E2"/>
</linearGradient>
<linearGradient id="paint1_linear" x1="44" y1="2" x2="6" y2="41.5" gradientUnits="userSpaceOnUse">
<stop stop-color="#02D8DE"/>
<stop offset="1" stop-color="#02D8DE" stop-opacity="0.4"/>
</linearGradient>
<linearGradient id="paint2_linear" x1="24.5" y1="56.5" x2="53.6697" y2="20.9028" gradientUnits="userSpaceOnUse">
<stop stop-color="#B950F0"/>
<stop offset="1" stop-color="#20B0E2"/>
</linearGradient>
<linearGradient id="paint3_linear" x1="-29" y1="47.5" x2="22.564" y2="61.8915" gradientUnits="userSpaceOnUse">
<stop stop-color="#B950F0"/>
<stop offset="1" stop-color="#20B0E2"/>
</linearGradient>
</defs>
</svg>
