<?xml version="1.0" encoding="UTF-8"?> <svg xmlns="http://www.w3.org/2000/svg" width="151" height="34" viewBox="0 0 151 34" fill="none"><g id="Layer_1" clip-path="url(#clip0_327_773)"><g id="Group"><path id="Vector" d="M53.49 8.52501L52.94 8.66501C51.04 3.90501 46.28 1.03501 41.52 1.03501C34.67 1.03501 29.68 5.24501 28.98 13.185C28.93 13.815 28.9 14.465 28.9 15.135C28.9 16.245 28.9 17.345 28.83 18.445C28.74 19.795 28.56 21.125 28.16 22.445C28.01 22.945 27.84 23.435 27.64 23.925C27.3 24.755 26.89 25.575 26.37 26.305C23.52 30.455 18.7 32.915 12.58 32.915H0V32.265C1.53 31.755 1.85 30.375 1.85 27.045V6.41501C1.85 3.08501 1.53 1.70501 0 1.19501V0.54501H11.56C18.52 0.54501 23.03 2.93501 25.76 6.18501C25.6 6.39501 25.44 6.60501 25.29 6.82501C25.07 7.13501 24.87 7.46501 24.67 7.78501C23.91 9.07501 23.33 10.465 22.95 11.905C21.14 5.64501 16.43 1.27501 8.6 1.27501H6.75V28.775C6.75 30.945 7.21 32.145 9.76 32.145H12.25C13.7 32.145 15.16 31.995 16.56 31.595C17.8 31.235 18.97 30.665 19.97 29.845C20.99 29.015 21.79 27.955 22.38 26.785C23.09 25.385 23.49 23.845 23.73 22.295C23.92 21.065 23.97 19.815 24 18.565C24.02 17.355 23.99 16.135 24.15 14.935C24.44 12.745 25.16 10.625 26.28 8.71501C26.47 8.38501 26.68 8.06501 26.9 7.74501C30.06 3.17501 35.61 0.13501 42.72 0.13501C46.14 0.13501 50.9 0.78501 53.31 2.40501L53.5 8.50501L53.49 8.52501Z" fill="#F15934"></path><path id="Vector_2" d="M54.1797 24.4649L53.4397 31.0749C50.9897 32.1849 47.4797 33.2949 41.8397 33.2949C35.4697 33.2949 30.5197 31.3949 27.4697 27.7949C27.6997 27.5149 27.9097 27.2249 28.1197 26.9249C28.6397 26.1949 29.0497 25.3749 29.3897 24.5449C29.5897 24.0649 29.7597 23.5649 29.9097 23.0649C29.9897 22.8149 30.0497 22.5649 30.1097 22.3149C32.1497 28.0349 36.6997 32.3149 43.1797 32.3149C48.3597 32.3149 51.9197 29.1749 53.5797 24.3649L54.1797 24.4549V24.4649Z" fill="#F15934"></path></g><g id="Group_2"><path id="Vector_3" d="M66.7198 1.08521C69.1798 1.08521 71.3198 1.34521 73.2698 2.80521C75.4098 4.41521 76.6498 6.9852 76.6498 9.91521C76.6498 12.8452 75.4298 15.3852 73.1098 17.0252C71.0498 18.4752 69.1198 18.7152 66.6598 18.7152H63.0098V1.08521H66.7098H66.7198ZM65.7198 16.1752H66.8798C68.1998 16.1752 70.0198 16.0652 71.5598 14.9352C72.7798 14.0152 73.9598 12.3152 73.9598 9.91521C73.9598 7.5152 72.8498 5.7652 71.5798 4.84521C70.0498 3.73521 68.1698 3.62521 66.8798 3.62521H65.7198V16.1752Z" fill="#28306D"></path><path id="Vector_4" d="M91.3801 3.61521H84.3502V8.08521H91.1702V10.6252H84.3502V16.1752H91.3801V18.7152H81.6602V1.08521H91.3801V3.62521V3.61521Z" fill="#28306D"></path><path id="Vector_5" d="M97.3697 1.08521L102.29 13.3752L107.21 1.08521H110.12L102.3 19.8452L94.4697 1.08521H97.3797H97.3697Z" fill="#28306D"></path><path id="Vector_6" d="M116.639 1.08521V18.7152H113.939V1.08521H116.639Z" fill="#28306D"></path><path id="Vector_7" d="M135.53 5.20514C133.57 3.43514 131.75 3.24514 130.75 3.24514C126.92 3.24514 124.33 6.07514 124.33 9.95514C124.33 13.8351 127.03 16.5651 130.78 16.5651C132.89 16.5651 134.53 15.4851 135.54 14.5351V17.7351C133.77 18.7951 131.92 19.0551 130.7 19.0551C127.5 19.0551 125.49 17.6051 124.46 16.6251C122.4 14.6951 121.63 12.4451 121.63 9.96514C121.63 6.71514 122.98 4.46514 124.46 3.06514C126.28 1.34514 128.4 0.765137 130.83 0.765137C132.44 0.765137 134 1.05514 135.53 2.03514V5.20514Z" fill="#28306D"></path><path id="Vector_8" d="M150.199 3.61521H143.169V8.08521H149.99V10.6252H143.169V16.1752H150.199V18.7152H140.479V1.08521H150.199V3.62521V3.61521Z" fill="#28306D"></path></g><g id="Group_3"><path id="Vector_9" d="M70.28 26.205C69.26 25.275 68.3 25.185 67.77 25.185C65.76 25.185 64.41 26.665 64.41 28.705C64.41 30.745 65.82 32.165 67.79 32.165C68.9 32.165 69.76 31.595 70.28 31.095V32.775C69.35 33.325 68.38 33.465 67.75 33.465C66.07 33.465 65.02 32.705 64.48 32.195C63.4 31.185 63 30.005 63 28.705C63 27.005 63.71 25.825 64.48 25.095C65.44 24.195 66.54 23.895 67.82 23.895C68.66 23.895 69.48 24.045 70.28 24.555V26.215V26.205Z" fill="#28306D"></path><path id="Vector_10" d="M81.7299 28.675C81.7299 31.385 79.6999 33.465 76.9299 33.465C74.1599 33.465 72.1299 31.385 72.1299 28.675C72.1299 25.965 74.1599 23.885 76.9299 23.885C79.6999 23.885 81.7299 25.965 81.7299 28.675ZM80.3199 28.675C80.3199 26.625 78.9099 25.185 76.9299 25.185C74.9499 25.185 73.5399 26.625 73.5399 28.675C73.5399 30.725 74.9499 32.165 76.9299 32.165C78.9099 32.165 80.3199 30.725 80.3199 28.675Z" fill="#28306D"></path><path id="Vector_11" d="M84.3301 33.285V23.425L91.0301 30.445V24.045H92.4401V33.845L85.7401 26.825V33.275H84.3301V33.285Z" fill="#28306D"></path><path id="Vector_12" d="M99.4699 26.095C99.3899 25.885 99.2599 25.695 99.0499 25.515C98.7599 25.275 98.4499 25.185 98.0499 25.185C97.1899 25.185 96.7499 25.695 96.7499 26.295C96.7499 26.575 96.8499 27.055 97.7499 27.415L98.6799 27.785C100.38 28.475 100.85 29.445 100.85 30.495C100.85 32.255 99.5999 33.455 97.8699 33.455C96.7999 33.455 96.1699 33.055 95.6999 32.525C95.1999 31.975 94.9799 31.365 94.9199 30.725L96.3199 30.425C96.3199 30.885 96.4899 31.315 96.7099 31.605C96.9699 31.935 97.3599 32.155 97.9099 32.155C98.7699 32.155 99.4299 31.535 99.4299 30.605C99.4299 29.675 98.7099 29.275 98.0999 29.025L97.2099 28.655C96.4499 28.335 95.3299 27.695 95.3299 26.315C95.3299 25.065 96.2999 23.875 98.0299 23.875C99.0299 23.875 99.5899 24.245 99.8899 24.495C100.14 24.715 100.4 25.035 100.6 25.425L99.4599 26.085L99.4699 26.095Z" fill="#28306D"></path><path id="Vector_13" d="M104.87 24.0452V29.6152C104.87 30.1152 104.88 30.7252 105.16 31.2052C105.44 31.6752 106.06 32.1652 106.88 32.1652C107.7 32.1652 108.32 31.6852 108.6 31.2052C108.88 30.7252 108.89 30.1152 108.89 29.6152V24.0452H110.3V29.9852C110.3 30.7152 110.15 31.6052 109.44 32.3752C108.96 32.9052 108.14 33.4552 106.88 33.4552C105.62 33.4552 104.8 32.9052 104.32 32.3752C103.61 31.6052 103.46 30.7152 103.46 29.9852V24.0452H104.87Z" fill="#28306D"></path><path id="Vector_14" d="M114.75 24.0452V31.9452H117.46V33.2752H113.33V24.0452H114.74H114.75Z" fill="#28306D"></path><path id="Vector_15" d="M121.77 25.3752V33.2752H120.36V25.3752H118.24V24.0452H123.89V25.3752H121.77Z" fill="#28306D"></path><path id="Vector_16" d="M127.38 24.0452V33.2752H125.97V24.0452H127.38Z" fill="#28306D"></path><path id="Vector_17" d="M130.42 33.285V23.425L137.12 30.445V24.045H138.53V33.845L131.83 26.825V33.275H130.42V33.285Z" fill="#28306D"></path><path id="Vector_18" d="M146.35 28.475H150.16V28.545C150.16 30.125 149.69 31.415 148.79 32.285C147.83 33.215 146.7 33.465 145.65 33.465C144.31 33.465 143.35 33.075 142.51 32.205C141.61 31.275 141.14 30.045 141.14 28.715C141.14 27.275 141.72 26.025 142.48 25.265C143.27 24.465 144.53 23.885 145.95 23.885C146.78 23.885 147.64 24.065 148.36 24.465C149.12 24.895 149.59 25.435 149.86 25.845L148.74 26.635C148.46 26.245 148.05 25.835 147.6 25.585C147.09 25.285 146.53 25.185 145.97 25.185C144.77 25.185 143.99 25.685 143.53 26.145C142.92 26.755 142.55 27.735 142.55 28.735C142.55 29.665 142.9 30.595 143.51 31.245C144.15 31.925 144.94 32.175 145.82 32.175C146.62 32.175 147.29 31.935 147.88 31.355C148.39 30.855 148.6 30.315 148.66 29.795H146.36V28.495L146.35 28.475Z" fill="#28306D"></path></g></g><defs><clipPath id="clip0_327_773"><rect width="150.2" height="33.69" fill="white" transform="translate(0 0.155029)"></rect></clipPath></defs></svg> 